<?xml version="1.0" encoding="UTF-8" standalone="no"?>
<svg
   version="1.1"
   id="Layer_1"
   x="0px"
   y="0px"
   width="100%"
   viewBox="0 0 1008 1024"
   enable-background="new 0 0 1008 1024"
   xml:space="preserve"
   sodipodi:docname="aa09b73f3be05e51c2cbba1a42d46c14.svg"
   xmlns:inkscape="http://www.inkscape.org/namespaces/inkscape"
   xmlns:sodipodi="http://sodipodi.sourceforge.net/DTD/sodipodi-0.dtd"
   xmlns="http://www.w3.org/2000/svg"
   xmlns:svg="http://www.w3.org/2000/svg"><defs
   id="defs15" /><sodipodi:namedview
   id="namedview13"
   pagecolor="#ffffff"
   bordercolor="#666666"
   borderopacity="1.0"
   inkscape:pageshadow="2"
   inkscape:pageopacity="0.0"
   inkscape:pagecheckerboard="0" />
<path
   fill="#000000"
   opacity="1.000000"
   stroke="none"
   d=" M663.949097,641.028198   C682.351501,657.516052 683.309021,682.662964 666.578186,700.281006   C658.517883,708.768738 649.179626,715.180969 638.127747,719.148987   C633.598389,720.775146 629.226685,722.840271 624.272217,724.920227   C628.258911,727.315674 632.303101,727.943237 636.245483,728.590881   C647.876282,730.501465 658.683044,734.672546 669.198975,739.838379   C701.457581,755.685242 698.819641,795.429932 682.352783,813.623962   C670.536743,826.679260 655.073975,832.294189 638.381836,835.182495   C628.865479,836.829041 619.170776,837.022705 609.509949,837.034790   C587.020630,837.062927 564.530823,837.113525 542.042114,836.994751   C534.054993,836.952576 526.069519,836.462524 518.084900,836.138672   C516.459290,836.072815 514.707703,836.194885 513.579346,834.453308   C514.577515,831.893127 517.010254,832.212402 519.019775,831.859680   C528.535706,830.189209 532.653076,825.258667 532.976135,815.832153   C534.630920,767.537109 533.403503,719.229736 533.668457,670.929260   C533.720520,661.445190 533.206726,651.955444 532.838318,642.472778   C532.624756,636.977295 529.093140,632.881165 523.714783,631.403015   C520.358704,630.480591 517.025696,629.470825 513.706116,628.424500   C513.330017,628.305969 513.108521,627.696960 512.630798,627.075195   C515.147339,624.902283 518.241638,625.052490 521.025757,625.033691   C551.000549,624.831238 580.965027,625.483704 610.919250,626.548584   C617.563660,626.784668 624.200256,626.777588 630.858032,627.492676   C643.160034,628.814087 654.022461,633.193176 663.949097,641.028198  M592.511536,730.255615   C591.845764,730.254578 591.179993,730.252197 590.514221,730.252625   C583.094055,730.257019 583.077393,730.257141 583.075012,737.598633   C583.067444,761.232971 582.934387,784.868408 583.116882,808.501343   C583.269104,828.217407 587.834229,832.281982 607.513367,830.721252   C621.690247,829.597046 632.707886,823.477722 638.433044,809.868164   C644.689697,794.994995 645.456238,779.432434 642.628418,763.803589   C639.260071,745.186951 627.835571,734.384766 609.364075,731.538818   C604.121399,730.731079 598.822571,729.987671 592.511536,730.255615  M629.687561,679.229126   C630.048523,669.694397 629.277283,660.265625 626.646851,651.070740   C622.629700,637.028381 614.591492,631.063416 600.094849,631.152649   C587.735352,631.228760 583.666565,634.608398 583.439636,647.065247   C583.000000,671.195129 583.197998,695.336365 583.084045,719.472717   C583.070618,722.319458 584.015869,723.842224 587.122559,723.729797   C591.112976,723.585266 595.136841,723.946533 599.101501,723.590759   C610.150085,722.599060 618.509949,717.685974 623.480774,707.231140   C627.589844,698.588928 628.572266,689.401855 629.687561,679.229126  z"
   id="path2" />
<path
   fill="#000000"
   opacity="1.000000"
   stroke="none"
   d=" M499.376343,456.578247   C514.283936,465.131805 528.928528,473.411377 543.427795,481.938171   C546.748108,483.890808 549.316895,483.785370 552.600647,481.865997   C577.907227,467.073975 603.303650,452.435242 628.698425,437.794525   C630.817566,436.572815 632.846680,434.958740 635.490479,435.042114   C637.450745,436.521240 637.122742,438.651550 637.166077,440.588501   C637.830200,470.233124 638.106262,499.881165 637.949524,529.533691   C637.932434,532.771179 637.184021,535.224731 634.115662,536.988159   C607.404236,552.339600 580.717285,567.734741 554.119812,583.282349   C550.040222,585.667053 546.764465,585.639465 542.637451,583.242188   C516.715393,568.184387 490.662964,553.350342 464.614868,538.510376   C462.088928,537.071350 460.733154,535.472473 460.608307,532.313293   C459.383850,501.339539 460.017731,470.351776 459.732391,439.372009   C459.720245,438.051819 459.599182,436.694427 461.079620,434.453125   C473.682556,441.733612 486.371582,449.063812 499.376343,456.578247  z"
   id="path4" />
<path
   fill="#000000"
   opacity="1.000000"
   stroke="none"
   d=" M498.355042,397.416656   C483.074585,406.327087 468.189880,415.194672 453.104004,423.705658   C448.844666,426.108704 446.960876,428.762878 447.180786,433.884583   C448.209900,457.853577 448.342438,481.847076 448.039581,505.836365   C447.947998,513.089539 447.353119,520.336304 447.000549,527.351685   C444.087402,528.374207 442.486511,526.865967 440.834778,525.920776   C415.100494,511.193665 389.413147,496.384583 363.658600,481.693146   C360.756897,480.037903 359.498108,478.225098 359.518005,474.638092   C359.692780,443.147186 359.634735,411.654755 359.555573,380.163025   C359.548859,377.489655 359.785950,375.478455 362.465088,373.954865   C389.105316,358.805115 415.261993,342.806976 442.442017,328.600494   C446.389709,326.537140 449.577972,326.484528 453.579468,328.717285   C478.165894,342.435669 502.569305,356.467285 526.793152,370.812469   C528.871704,372.043457 531.416138,372.842651 532.832825,376.263245   C521.900574,383.847687 510.090332,390.237915 498.355042,397.416656  z"
   id="path6" />
<path
   fill="#000000"
   opacity="1.000000"
   stroke="none"
   d=" M549.546021,461.255371   C548.378601,451.683441 548.855042,442.513397 548.812134,433.363159   C548.720093,413.713257 548.612671,394.060455 548.885559,374.414032   C548.950317,369.751007 547.324036,367.109131 543.449585,364.876984   C518.637817,350.582611 493.907410,336.146759 469.169403,321.724579   C466.757538,320.318451 464.176361,319.078156 462.430237,316.848816   C462.792999,314.026031 465.128571,313.318359 466.862793,312.295807   C491.241180,297.921875 515.689026,283.665833 540.075562,269.305664   C545.270691,266.246521 549.837402,266.057495 555.383362,269.326324   C580.336487,284.033813 605.533630,298.328369 630.706665,312.659668   C633.805298,314.423767 635.169922,316.488922 635.152649,320.169830   C635.006287,351.476440 634.992737,382.783997 635.085815,414.090851   C635.097046,417.861206 633.881836,420.193268 630.566345,422.115601   C605.076050,436.895050 579.677368,451.832703 554.247070,466.715668   C553.261597,467.292419 552.330139,468.100800 550.847107,467.640717   C548.981873,466.078400 549.992004,463.718109 549.546021,461.255371  z"
   id="path8" />
<path
   fill="#000000"
   opacity="1.000000"
   stroke="none"
   d=" M425.769348,628.206665   C403.983734,623.943481 384.257629,633.188354 371.896790,652.983337   C362.776581,667.588684 358.473389,683.791199 356.499390,700.593628   C353.652557,724.825195 353.689850,749.088135 358.291138,773.163513   C361.832367,791.692383 368.668976,808.701477 382.809143,821.858826   C401.270508,839.037048 426.864227,839.862122 447.437317,825.259521   C465.249542,812.616455 472.690674,795.039978 474.775757,774.240295   C475.155670,770.450562 475.208923,766.329529 478.529480,763.569946   C481.257202,764.544373 480.994049,766.607239 481.058472,768.323242   C481.801880,788.122253 482.542358,807.921936 483.107025,827.726501   C483.196136,830.852905 484.099792,835.607483 480.099823,836.206787   C475.593109,836.882080 477.128540,831.625061 475.826447,829.080200   C474.921387,827.311218 474.424042,825.310852 473.382019,823.639954   C471.696564,820.937500 469.405731,819.781067 466.220398,821.560242   C460.842377,824.564148 455.307465,827.293823 449.991516,830.400757   C439.753326,836.384338 428.815796,839.920898 416.972839,840.862427   C379.348999,843.853394 346.494446,834.388550 322.330811,803.654846   C309.400543,787.208862 303.353607,767.809082 302.110565,747.091125   C300.837158,725.866455 301.894012,704.914062 309.885132,684.663635   C329.270233,635.539368 374.631805,617.473572 418.370148,621.074585   C433.052399,622.283447 445.669250,627.892395 457.733154,635.594421   C459.557861,636.759338 461.520020,637.734253 463.240570,639.032959   C470.894562,644.809937 473.330231,639.946045 475.486603,634.147339   C476.117584,632.450623 476.289734,630.582336 476.661346,628.790405   C477.076599,626.788208 477.544312,624.503296 480.018829,624.506836   C482.463196,624.510315 482.459259,626.975891 482.709625,628.669189   C483.763458,635.796143 483.219666,642.971375 482.959473,650.118103   C482.493103,662.927124 481.832489,675.729431 481.202332,688.532043   C481.091125,690.791443 481.564362,693.241699 479.639099,695.156921   C476.515442,695.261169 476.382568,692.682312 475.892822,690.754883   C474.459106,685.113037 473.355286,679.387329 471.921631,673.745483   C465.756226,649.482971 449.897552,634.921631 425.769348,628.206665  z"
   id="path10" />
</svg>
